<svg width="73" height="73" viewBox="0 0 73 73" fill="none" xmlns="http://www.w3.org/2000/svg">
<rect x="0.5" y="0.5" width="72" height="72" rx="36" fill="#E3FAF4"/>
<rect x="0.5" y="0.5" width="72" height="72" rx="36" stroke="#67B578"/>
<path d="M18.2882 24.5012C14.7116 24.5802 11.8975 28.5034 12.0029 33.2637C12.1082 38.0242 15.093 41.8191 18.6695 41.7402C22.2463 41.6614 25.0601 37.7382 24.9548 32.9779C24.8495 28.2174 21.8649 24.4223 18.2882 24.5012ZM15.1706 31.5861C13.4287 31.8106 13.0831 29.1097 14.8221 28.8859C16.5644 28.6615 16.91 31.3621 15.1706 31.5861Z" fill="#67B578"/>
<path d="M61.9479 33.9935C62.3973 29.5694 59.882 25.6911 56.3297 25.3311C52.7773 24.9711 49.5336 28.2656 49.0841 32.6898C48.635 37.114 51.1505 40.9922 54.7026 41.3522C58.2548 41.7122 61.4988 38.4175 61.9479 33.9935ZM59.1201 32.0067C57.3868 31.7429 57.7994 29.0569 59.5297 29.3204C61.2629 29.5844 60.8503 32.2702 59.1201 32.0067Z" fill="#67B578"/>
<path d="M33.0552 42.661C33.2543 44.4483 34.492 45.7435 36.1905 46.2636C37.7726 46.7482 39.5991 46.4979 40.8781 45.4182C41.6736 44.7465 42.0486 43.7823 42.1656 42.7737C42.2276 42.2396 41.6639 41.7795 41.1705 41.7795C40.5811 41.7795 40.2375 42.2378 40.1755 42.7737C40.199 42.5719 40.1814 42.7342 40.1615 42.8321C40.1452 42.9117 40.1265 42.9906 40.1041 43.0686C40.0834 43.1416 40.0437 43.2184 40.0308 43.2922C40.0133 43.3923 40.0656 43.2154 40.07 43.2069C40.0506 43.2452 40.0354 43.2857 40.0156 43.324C39.9473 43.4552 39.8659 43.5747 39.7902 43.7012C39.704 43.8455 39.9249 43.561 39.7742 43.7162C39.7177 43.7744 39.6647 43.8354 39.606 43.8915C39.5554 43.9398 39.4954 43.9813 39.4478 44.032C39.5584 43.9146 39.5539 43.9558 39.4312 44.0391C39.3138 44.1187 39.1911 44.1899 39.0642 44.2531C38.9362 44.3168 38.8878 44.3174 39.0506 44.2657C38.9822 44.2874 38.916 44.317 38.8479 44.3399C38.7001 44.3893 38.5493 44.4291 38.3966 44.4605C38.3569 44.4686 38.1073 44.517 38.2806 44.4852C38.4434 44.4552 38.2342 44.4895 38.1929 44.4931C38.0342 44.5073 37.8748 44.513 37.7153 44.5101C37.5653 44.5075 37.4173 44.486 37.268 44.4805C37.4468 44.4872 37.3911 44.4996 37.2472 44.4739C37.1737 44.4607 37.1004 44.4459 37.0277 44.4291C36.8827 44.3958 36.7392 44.3555 36.5983 44.3077C36.5286 44.2841 36.4604 44.2525 36.3901 44.2314C36.2869 44.2004 36.4831 44.2714 36.4822 44.2708C36.4361 44.2468 36.3865 44.2276 36.3397 44.2047C36.2089 44.141 36.0816 44.0703 35.9589 43.9921C35.9068 43.959 35.8564 43.9232 35.8052 43.8887C35.6139 43.7598 35.9307 44.0069 35.7647 43.8557C35.6438 43.7456 35.5306 43.6335 35.4201 43.5127C35.2664 43.3447 35.511 43.6615 35.3905 43.474C35.3464 43.4055 35.3012 43.3388 35.2607 43.2681C35.2204 43.1977 35.1905 43.1191 35.1486 43.05C35.0947 42.9612 35.1879 43.144 35.1883 43.1452C35.1753 43.0958 35.1516 43.0469 35.1356 42.9979C35.1091 42.9172 35.0866 42.8355 35.0676 42.7527C35.0605 42.7216 35.0562 42.6886 35.0475 42.6578C34.986 42.4421 35.0702 42.888 35.0449 42.6608C34.9854 42.1272 34.6302 41.6667 34.0498 41.6667C33.5584 41.6667 32.9953 42.1239 33.0552 42.661Z" fill="#67B578"/>
</svg>
